<?xml version="1.0" encoding="UTF-8" standalone="no"?>
<!-- Created with Inkscape (http://www.inkscape.org/) -->

<svg
   xmlns:dc="http://purl.org/dc/elements/1.1/"
   xmlns:cc="http://creativecommons.org/ns#"
   xmlns:rdf="http://www.w3.org/1999/02/22-rdf-syntax-ns#"
   xmlns:svg="http://www.w3.org/2000/svg"
   xmlns="http://www.w3.org/2000/svg"
   xmlns:sodipodi="http://sodipodi.sourceforge.net/DTD/sodipodi-0.dtd"
   xmlns:inkscape="http://www.inkscape.org/namespaces/inkscape"
   width="157.88951"
   height="134.60823"
   id="svg2"
   version="1.1"
   inkscape:version="0.48.4 r"
   sodipodi:docname="mod_mruby_logo.svg"
   inkscape:export-filename="C:\Users\Yoshihiko\Desktop\mod_mruby_logo.png"
   inkscape:export-xdpi="400.065"
   inkscape:export-ydpi="400.065">
  <defs
     id="defs4" />
  <sodipodi:namedview
     id="base"
     pagecolor="#ffffff"
     bordercolor="#666666"
     borderopacity="1.0"
     inkscape:pageopacity="0"
     inkscape:pageshadow="2"
     inkscape:zoom="2"
     inkscape:cx="283.50755"
     inkscape:cy="108.33322"
     inkscape:document-units="px"
     inkscape:current-layer="layer1"
     showgrid="false"
     inkscape:window-width="1920"
     inkscape:window-height="1017"
     inkscape:window-x="1912"
     inkscape:window-y="-8"
     inkscape:window-maximized="1"
     fit-margin-top="2"
     fit-margin-left="2"
     fit-margin-right="2"
     fit-margin-bottom="2" />
  <metadata
     id="metadata7">
    <rdf:RDF>
      <cc:Work
         rdf:about="">
        <dc:format>image/svg+xml</dc:format>
        <dc:type
           rdf:resource="http://purl.org/dc/dcmitype/StillImage" />
        <dc:title></dc:title>
      </cc:Work>
    </rdf:RDF>
  </metadata>
  <g
     inkscape:label="レイヤー 1"
     inkscape:groupmode="layer"
     id="layer1"
     transform="translate(-273.70525,-604.41835)">
    <path
       style="fill:#ffffff;stroke:#d33119;stroke-width:8.85826778;stroke-linejoin:miter;stroke-miterlimit:4;stroke-opacity:1;stroke-dasharray:none"
       d="m 359.35313,610.84748 c -12.53561,0 -23.30862,7.47126 -27.9375,18.15625 -2.89449,-1.78326 -6.24694,-2.84375 -9.84375,-2.84375 -10.61176,0 -19.2482,8.91115 -19.53125,20 -12.46513,2.32383 -21.90625,13.22431 -21.90625,26.3125 0,13.11011 9.47259,24.01355 21.96875,26.3125 2.30122,0.5033 4.75236,0.7107 7.25,0.5625 l 83.25,0 c 1.64879,0.15144 3.21897,0.10297 4.71875,-0.0937 15.59798,-1.3691 27.84375,-14.43367 27.84375,-30.34375 0,-16.82185 -13.69362,-30.46875 -30.5625,-30.46875 -1.70015,0 -3.34422,0.17116 -4.96875,0.4375 -0.98555,-15.63904 -14.16145,-28.03125 -30.28125,-28.03125 z"
       id="path4017"
       inkscape:connector-curvature="0" />
    <rect
       style="opacity:0.1;fill:#d33119;display:none"
       y="153.86684"
       x="-23.361771"
       display="none"
       width="800"
       height="600"
       id="rect2989" />
    <rect
       style="opacity:0.1;fill:#d33119;display:none"
       y="310.43826"
       x="42.352505"
       display="none"
       width="800"
       height="600"
       id="rect3067" />
    <path
       style="fill:#d33119"
       inkscape:connector-curvature="0"
       d="m 344.21513,717.72755 c 0.87279,-1.31885 1.92285,-1.9788 3.14914,-1.9788 1.8946,0 3.29451,0.78441 4.23579,2.40551 0.20447,-0.27872 0.45025,-0.57157 0.73839,-0.87801 0.28814,-0.30696 0.7478,-0.64112 1.38004,-1.00352 0.63118,-0.36187 1.28172,-0.54333 1.95055,-0.54333 1.48619,0 2.71928,0.57523 3.71286,1.71367 1.003,1.15046 1.51652,3.03304 1.51652,5.67126 v 4.87692 c 0,0.42724 -0.0131,0.74832 -0.0418,0.94129 -0.0277,0.21336 -0.11557,0.45966 -0.26461,0.73839 -0.24107,0.50149 -0.95697,0.75198 -2.14614,0.75198 -1.17033,0 -1.88519,-0.2599 -2.14613,-0.78022 -0.12969,-0.27873 -0.20813,-0.52451 -0.23689,-0.73839 -0.0277,-0.21336 -0.0418,-0.53392 -0.0418,-0.96168 v -4.8764 c 0,-1.6164 -0.57628,-2.42486 -1.72726,-2.42486 -0.65054,0 -1.0919,0.21388 -1.32356,0.64112 -0.23271,0.42724 -0.34828,1.03123 -0.34828,1.81145 v 4.87692 c 0,0.44607 -0.0141,0.77134 -0.0418,0.99359 -0.0288,0.20499 -0.11662,0.44606 -0.26461,0.72479 -0.26042,0.5015 -0.98574,0.75198 -2.17437,0.75198 -1.17034,0 -1.88519,-0.2599 -2.14614,-0.78022 -0.12969,-0.27873 -0.20813,-0.52451 -0.23689,-0.73839 -0.0277,-0.21336 -0.0408,-0.53392 -0.0408,-0.96168 v -4.8764 c 0,-1.6164 -0.57628,-2.42486 -1.72831,-2.42486 -1.1149,0 -1.67183,0.80846 -1.67183,2.42486 v 4.93235 c 0,0.42777 -0.0136,0.74833 -0.0418,0.96169 -0.0277,0.21388 -0.11609,0.45966 -0.26461,0.73211 -0.27872,0.48372 -1.00351,0.72479 -2.17385,0.72479 -1.17033,0 -1.88519,-0.25049 -2.14614,-0.75198 -0.12968,-0.27873 -0.20865,-0.5198 -0.23636,-0.7248 -0.0282,-0.20446 -0.0418,-0.52973 -0.0418,-0.97528 v -9.80979 c 0,-0.42672 0.0136,-0.7478 0.0418,-0.96116 0.0277,-0.21336 0.11557,-0.45025 0.2646,-0.71067 0.27873,-0.5015 0.93815,-0.75199 1.9788,-0.75199 1.04012,0 1.7257,0.15689 2.03946,0.5015 0.31951,0.36292 0.47378,0.83356 0.47378,1.47626 z"
       id="path3069" />
    <path
       style="fill:#d33119"
       inkscape:connector-curvature="0"
       d="m 374.22916,715.94328 c 0.35246,0.10459 0.62752,0.31376 0.88899,0.57157 0.23166,0.26147 0.36606,0.67982 0.36606,1.30735 0,0.5951 -0.17675,1.24511 -0.52921,1.95056 -0.35351,0.70648 -0.8639,1.05895 -1.53326,1.05895 -0.33415,0 -0.65472,-0.0743 -0.96116,-0.2233 -0.30644,-0.14799 -0.71067,-0.22277 -1.21217,-0.22277 -0.5015,0 -0.97109,0.17675 -1.40722,0.52974 -0.43718,0.35298 -0.65472,0.78022 -0.65472,1.28172 v 5.85167 c 0,0.42777 -0.0141,0.74833 -0.0418,0.96169 -0.0277,0.21388 -0.11661,0.45966 -0.2646,0.73838 -0.27873,0.48372 -1.00404,0.7248 -2.17438,0.73212 -0.89161,0 -1.53221,-0.15793 -1.92232,-0.47379 -0.29703,-0.2599 -0.46489,-0.65942 -0.5015,-1.19805 0,-0.18512 0,-0.45495 0,-0.80846 v -9.78155 c 0,-0.42672 0.0131,-0.7478 0.0418,-0.96116 0.0277,-0.21336 0.10615,-0.45025 0.23584,-0.71068 0.26043,-0.50149 0.98469,-0.75198 2.17438,-0.75198 1.11438,0 1.83028,0.20917 2.09175,0.64112 0.20447,0.31376 0.31376,0.62753 0.31376,0.91985 0.0931,-0.12969 0.228,-0.28814 0.40423,-0.47378 0.17676,-0.18512 0.55275,-0.43613 1.1285,-0.75199 0.57524,-0.31585 1.08144,-0.47378 1.51862,-0.47378 0.43613,0 0.7844,0 1.09817,0.0523 0.26094,0.0685 0.57261,0.1208 0.93867,0.23428 z"
       id="path3071" />
    <path
       style="fill:#d33119"
       inkscape:connector-curvature="0"
       d="m 384.06614,730.40722 c -1.87734,0 -3.43256,-0.71067 -4.66774,-2.13202 -1.2357,-1.42134 -1.85381,-3.15331 -1.85381,-5.19695 v -4.87692 c 0,-0.44607 0.0141,-0.77081 0.0418,-0.97528 0.0277,-0.20447 0.1072,-0.44607 0.23689,-0.72427 0.26042,-0.50202 0.98469,-0.75251 2.17333,-0.75251 1.30003,0 2.03946,0.36606 2.30093,1.05895 0.11138,0.31376 0.15688,0.78441 0.15688,1.42135 v 4.87692 c 0,0.7844 0.20918,1.35963 0.67982,1.77798 0.43718,0.41835 1.04588,0.62753 1.77799,0.64113 0.7342,0 1.32878,-0.22278 1.78426,-0.66884 0.45444,-0.44607 0.68244,-1.03123 0.68244,-1.75498 v -4.93287 c 0,-0.42725 0.0141,-0.74781 0.0418,-0.96169 0.0277,-0.21336 0.11557,-0.45966 0.26461,-0.73839 0.24107,-0.48319 0.95698,-0.72479 2.14614,-0.72479 1.17033,0 1.88257,0.26147 2.14404,0.75251 0.12969,0.26147 0.20918,0.52294 0.26147,0.73839 0.0523,0.21545 0.0418,0.52294 0.0523,0.96116 v 9.86522 c 0,0.40894 -0.0141,0.72009 -0.0418,0.94129 -0.0277,0.21388 -0.11662,0.45077 -0.26461,0.71067 -0.27872,0.4832 -0.99358,0.72427 -2.14613,0.72427 -1.13373,0 -1.83029,-0.22277 -2.08966,-0.66831 -0.18565,-0.31586 -0.27873,-0.69656 -0.27873,-1.14314 -0.0748,0.13021 -0.24212,0.31585 -0.5015,0.55745 -0.26042,0.24159 -0.51195,0.44606 -0.75251,0.62752 -0.71851,0.39953 -1.42343,0.6087 -2.15555,0.59615 z"
       id="path3073" />
    <path
       style="fill:#d33119"
       inkscape:connector-curvature="0"
       d="m 404.15847,715.80418 c 1.65353,0 3.18992,0.73211 4.54956,2.20157 1.38369,1.46422 2.09175,3.18992 2.09175,5.12479 0,1.94167 -0.68714,3.64174 -2.06194,5.09969 -1.37585,1.459 -2.85263,2.18797 -4.4319,2.18797 -1.57928,0 -2.70255,-0.44606 -3.37138,-1.33767 -0.14904,0.90991 -0.94757,1.36487 -2.39715,1.35964 -1.17034,0 -1.88519,-0.25049 -2.14614,-0.75199 -0.12969,-0.27872 -0.20813,-0.5245 -0.23585,-0.73839 -0.0288,-0.21335 -0.0418,-0.53392 -0.0418,-0.96168 v -16.63675 c 0,-0.42671 0.0131,-0.7478 0.0418,-0.96116 0.0277,-0.21336 0.10616,-0.45025 0.23585,-0.71067 0.26042,-0.5015 0.98469,-0.75251 2.17438,-0.75251 1.17033,0 1.88257,0.26147 2.09175,0.75251 0.14904,0.26147 0.26147,0.52294 0.26147,0.73839 0.0277,0.20917 0.0523,0.52294 0.0523,0.96168 v 5.79625 c 0.75303,-0.9277 1.80884,-1.34605 3.16848,-1.37167 z m -2.43846,9.00133 c 0.45443,0.52294 1.04587,0.73211 1.72569,0.73211 0.6861,0 1.27179,-0.25048 1.75551,-0.7525 0.48214,-0.5015 0.72427,-1.05843 0.72427,-1.67184 0,-0.61288 -0.22278,-1.17452 -0.66884,-1.68595 -0.44555,-0.51091 -1.04065,-0.76663 -1.78322,-0.76663 -0.74362,0 -1.33402,0.26043 -1.77015,0.78023 -0.43613,0.52032 -0.65471,1.08248 -0.65471,1.6734 -0.0115,0.61184 0.21492,1.18707 0.68557,1.69118 z"
       id="path3075" />
    <path
       style="fill:#d33119"
       inkscape:connector-curvature="0"
       d="m 426.2573,715.94328 c 1.09608,0.47065 1.62111,1.04588 1.62111,1.7555 0,0.33468 -0.0748,0.65054 -0.22382,0.94129 -0.14903,0.29755 -0.22277,0.45548 -0.22277,0.47378 l -7.30178,16.33083 c -0.14799,0.35299 -0.2735,0.62178 -0.37599,0.80847 -0.10198,0.18512 -0.26461,0.36187 -0.48738,0.52293 -0.22382,0.16734 -0.50254,0.25049 -0.8367,0.25049 -0.33416,0 -0.82729,-0.1391 -1.47678,-0.41783 -1.09712,-0.48371 -1.64464,-1.05895 -1.64464,-1.72778 0,-0.44659 0.89161,-2.5739 2.67483,-6.38194 l -5.54524,-9.33601 c -0.3718,-0.61288 -0.55745,-1.06784 -0.55745,-1.36539 0,-0.59458 0.5015,-1.18812 1.5045,-1.78322 0.63223,-0.37129 1.12431,-0.55745 1.47782,-0.55745 0.35246,0 0.62752,0.0523 0.8367,0.22329 0.22382,0.15688 0.36606,0.31377 0.47064,0.47065 0.10198,0.15688 0.62753,1.04587 1.51652,2.59168 0.92037,1.56881 1.77799,3.03304 2.61469,4.38954 0.0931,-0.29651 0.59458,-1.44436 1.5045,-3.44146 0.90991,-1.9971 1.39833,-3.06127 1.4637,-3.19096 0.0643,-0.13021 0.17152,-0.28814 0.32056,-0.47378 0.24107,-0.31586 0.57994,-0.47379 1.01607,-0.47379 0.54072,0.0162 1.0783,0.1208 1.65353,0.39116 z"
       id="path3077" />
    <path
       style="fill:#4d4d4d"
       inkscape:connector-curvature="0"
       d="m 282.22408,717.86354 c 0.87279,-1.31885 1.92285,-1.9788 3.14913,-1.9788 1.89461,0 3.29451,0.78441 4.2358,2.40551 0.20447,-0.27872 0.45025,-0.57157 0.73839,-0.87801 0.28814,-0.30696 0.7478,-0.64112 1.38003,-1.00352 0.63119,-0.36187 1.28173,-0.54333 1.95056,-0.54333 1.48619,0 2.71928,0.57523 3.71286,1.71367 1.003,1.15046 1.51652,3.03304 1.51652,5.67126 v 4.87692 c 0,0.42724 -0.0131,0.74832 -0.0418,0.94129 -0.0277,0.21336 -0.11557,0.45966 -0.26461,0.73839 -0.24107,0.50149 -0.95698,0.75198 -2.14614,0.75198 -1.17033,0 -1.88519,-0.2599 -2.14613,-0.78022 -0.12969,-0.27873 -0.20813,-0.52451 -0.23689,-0.73839 -0.0277,-0.21336 -0.0418,-0.53392 -0.0418,-0.96168 v -4.8764 c 0,-1.6164 -0.57628,-2.42486 -1.72726,-2.42486 -0.65054,0 -1.0919,0.21388 -1.32356,0.64112 -0.23271,0.42724 -0.34828,1.03123 -0.34828,1.81145 v 4.87692 c 0,0.44607 -0.0141,0.77134 -0.0418,0.99359 -0.0288,0.20499 -0.11662,0.44606 -0.26461,0.72479 -0.26042,0.5015 -0.98574,0.75198 -2.17437,0.75198 -1.17034,0 -1.8852,-0.2599 -2.14614,-0.78022 -0.12969,-0.27873 -0.20813,-0.52451 -0.23689,-0.73839 -0.0277,-0.21336 -0.0408,-0.53392 -0.0408,-0.96168 v -4.8764 c 0,-1.6164 -0.57628,-2.42486 -1.72831,-2.42486 -1.11491,0 -1.67183,0.80846 -1.67183,2.42486 v 4.93235 c 0,0.42777 -0.0136,0.74833 -0.0418,0.96169 -0.0277,0.21388 -0.11609,0.45966 -0.26461,0.73211 -0.27872,0.48372 -1.00351,0.72479 -2.17385,0.72479 -1.17033,0 -1.88519,-0.25049 -2.14614,-0.75198 -0.12969,-0.27873 -0.20865,-0.5198 -0.23636,-0.7248 -0.0282,-0.20446 -0.0418,-0.52973 -0.0418,-0.97528 v -9.80979 c 0,-0.42672 0.0136,-0.7478 0.0418,-0.96116 0.0277,-0.21336 0.11556,-0.45025 0.2646,-0.71067 0.27873,-0.5015 0.93815,-0.75199 1.9788,-0.75199 1.04012,0 1.72569,0.15689 2.03946,0.5015 0.31951,0.36292 0.47378,0.83356 0.47378,1.47626 z"
       id="path3069-9" />
    <path
       style="fill:#4d4d4d"
       inkscape:connector-curvature="0"
       d="m 326.6899,715.78008 c -1.65353,0 -3.18992,0.73211 -4.54956,2.20157 -1.3837,1.46422 -2.09175,3.18992 -2.09175,5.12479 0,1.94167 0.68714,3.64174 2.06194,5.09969 1.37585,1.459 2.85263,2.18797 4.4319,2.18797 1.57927,0 2.70254,-0.44606 3.37138,-1.33767 0.14904,0.90991 0.94756,1.36486 2.39715,1.35964 1.17033,0 1.88519,-0.25049 2.14614,-0.75199 0.12968,-0.27873 0.20812,-0.52451 0.23584,-0.73839 0.0288,-0.21336 0.0418,-0.53392 0.0418,-0.96168 v -16.63675 c 0,-0.42672 -0.0131,-0.7478 -0.0418,-0.96116 -0.0277,-0.21336 -0.10616,-0.45025 -0.23584,-0.71067 -0.26043,-0.5015 -0.9847,-0.75251 -2.17438,-0.75251 -1.17034,0 -1.88258,0.26147 -2.09175,0.75251 -0.14904,0.26147 -0.26147,0.52294 -0.26147,0.73839 -0.0277,0.20917 -0.0523,0.52293 -0.0523,0.96168 v 5.79624 c -0.75303,-0.92769 -1.80884,-1.34604 -3.16848,-1.37166 z m 2.43846,9.00133 c -0.45444,0.52294 -1.04588,0.73211 -1.7257,0.73211 -0.68609,0 -1.27178,-0.25049 -1.7555,-0.75251 -0.48215,-0.50149 -0.72427,-1.05842 -0.72427,-1.67183 0,-0.61288 0.22277,-1.17452 0.66884,-1.68595 0.44554,-0.51091 1.04064,-0.76663 1.78322,-0.76663 0.74361,0 1.33401,0.26043 1.77014,0.78023 0.43613,0.52032 0.65472,1.08248 0.65472,1.6734 0.0115,0.61183 -0.21493,1.18707 -0.68557,1.69118 z"
       id="path3075-9" />
    <text
       xml:space="preserve"
       style="font-size:28.35360146px;font-style:normal;font-variant:normal;font-weight:bold;font-stretch:normal;line-height:125%;letter-spacing:0px;word-spacing:0px;fill:#4d4d4d;fill-opacity:1;stroke:none;font-family:Aharoni;-inkscape-font-specification:Aharoni Bold"
       x="319.08539"
       y="689.10193"
       id="text3195"
       sodipodi:linespacing="125%"
       transform="scale(0.94390567,1.0594279)"><tspan
         sodipodi:role="line"
         id="tspan3197"
         x="319.08539"
         y="689.10193"
         style="font-weight:normal">o</tspan></text>
    <path
       style="fill:#d33119"
       inkscape:connector-curvature="0"
       d="m 376.08039,638.93654 c -2.03864,-2.03864 -4.63274,-2.33236 -8.69403,-2.45596 l -11.94974,0.14541 c -4.07728,0.1236 -11.58185,3.85626 -17.69777,10.03325 -6.02578,6.0243 -10.59307,12.23619 -10.63379,16.85003 l -0.70378,15.11821 c 0,3.34442 0.29082,5.52556 2.18114,7.51185 1.90923,1.89032 5.23474,3.19901 8.57915,2.90819 l 0.032,-0.003 -7.34753,-17.20193 13.462,-3.03324 14.93208,-14.27774 4.24596,-13.48381 15.16474,12.43541 -19.4107,1.04985 5.31762,20.81099 -20.2497,-6.53179 -6.11156,20.23517 38.84465,-2.69153 2.82094,-39.70984 0,0 c 0.24865,-3.4811 -0.77649,-5.80765 -2.81222,-7.70961 z"
       id="path3103" />
  </g>
</svg>
