<?xml version="1.0" encoding="UTF-8" standalone="no"?>
<!-- Created with Inkscape (http://www.inkscape.org/) -->

<svg
   xmlns:dc="http://purl.org/dc/elements/1.1/"
   xmlns:cc="http://creativecommons.org/ns#"
   xmlns:rdf="http://www.w3.org/1999/02/22-rdf-syntax-ns#"
   xmlns:svg="http://www.w3.org/2000/svg"
   xmlns="http://www.w3.org/2000/svg"
   xmlns:sodipodi="http://sodipodi.sourceforge.net/DTD/sodipodi-0.dtd"
   xmlns:inkscape="http://www.inkscape.org/namespaces/inkscape"
   width="157.88951"
   height="134.60823"
   id="svg2"
   version="1.1"
   inkscape:version="0.48.4 r"
   sodipodi:docname="mod_mruby_logo.svg"
   inkscape:export-filename="C:\Users\Yoshihiko\Documents\Git\mod_mruby_logo\mod_mruby_logo.png"
   inkscape:export-xdpi="400.065"
   inkscape:export-ydpi="400.065">
  <defs
     id="defs4" />
  <sodipodi:namedview
     id="base"
     pagecolor="#ffffff"
     bordercolor="#666666"
     borderopacity="1.0"
     inkscape:pageopacity="0"
     inkscape:pageshadow="2"
     inkscape:zoom="2"
     inkscape:cx="171.65306"
     inkscape:cy="0.60751674"
     inkscape:document-units="px"
     inkscape:current-layer="layer1"
     showgrid="false"
     inkscape:window-width="1920"
     inkscape:window-height="1017"
     inkscape:window-x="-8"
     inkscape:window-y="-8"
     inkscape:window-maximized="1"
     fit-margin-top="2"
     fit-margin-left="2"
     fit-margin-right="2"
     fit-margin-bottom="2" />
  <metadata
     id="metadata7">
    <rdf:RDF>
      <cc:Work
         rdf:about="">
        <dc:format>image/svg+xml</dc:format>
        <dc:type
           rdf:resource="http://purl.org/dc/dcmitype/StillImage" />
        <dc:title></dc:title>
      </cc:Work>
    </rdf:RDF>
  </metadata>
  <g
     inkscape:label="レイヤー 1"
     inkscape:groupmode="layer"
     id="layer1"
     transform="translate(-273.70525,-604.41835)">
    <path
       style="fill:#ffffff;stroke:#d33119;stroke-width:8.85826778;stroke-linejoin:miter;stroke-miterlimit:4;stroke-opacity:1;stroke-dasharray:none"
       d="m 359.35313,610.84748 c -12.53561,0 -23.30862,7.47126 -27.9375,18.15625 -2.89449,-1.78326 -6.24694,-2.84375 -9.84375,-2.84375 -10.61176,0 -19.2482,8.91115 -19.53125,20 -12.46513,2.32383 -21.90625,13.22431 -21.90625,26.3125 0,13.11011 9.47259,24.01355 21.96875,26.3125 2.30122,0.5033 4.75236,0.7107 7.25,0.5625 l 83.25,0 c 1.64879,0.15144 3.21897,0.10297 4.71875,-0.0937 15.59798,-1.3691 27.84375,-14.43367 27.84375,-30.34375 0,-16.82185 -13.69362,-30.46875 -30.5625,-30.46875 -1.70015,0 -3.34422,0.17116 -4.96875,0.4375 -0.98555,-15.63904 -14.16145,-28.03125 -30.28125,-28.03125 z"
       id="path4017"
       inkscape:connector-curvature="0" />
    <rect
       style="opacity:0.1;fill:#d33119;display:none"
       y="153.86684"
       x="-23.361771"
       display="none"
       width="800"
       height="600"
       id="rect2989" />
    <rect
       style="opacity:0.1;fill:#d33119;display:none"
       y="310.43826"
       x="42.352505"
       display="none"
       width="800"
       height="600"
       id="rect3067" />
    <path
       style="fill:#d33119"
       inkscape:connector-curvature="0"
       d="m 376.08039,638.93654 c -2.03864,-2.03864 -4.63274,-2.33236 -8.69403,-2.45596 l -11.94974,0.14541 c -4.07728,0.1236 -11.58185,3.85626 -17.69777,10.03325 -6.02578,6.0243 -10.59307,12.23619 -10.63379,16.85003 l -0.70378,15.11821 c 0,3.34442 0.29082,5.52556 2.18114,7.51185 1.90923,1.89032 5.23474,3.19901 8.57915,2.90819 l 0.032,-0.003 -7.34753,-17.20193 13.462,-3.03324 14.93208,-14.27774 4.24596,-13.48381 15.16474,12.43541 -19.4107,1.04985 5.31762,20.81099 -20.2497,-6.53179 -6.11156,20.23517 38.84465,-2.69153 2.82094,-39.70984 0,0 c 0.24865,-3.4811 -0.77649,-5.80765 -2.81222,-7.70961 z"
       id="path3103" />
    <g
       id="g3190"
       transform="matrix(0.73658488,0,0,0.73658488,72.269341,146.29524)">
      <text
         sodipodi:linespacing="125%"
         id="text3144-5"
         y="792.45728"
         x="276.78156"
         style="font-size:40px;font-style:normal;font-variant:normal;font-weight:normal;font-stretch:normal;line-height:125%;letter-spacing:0px;word-spacing:0px;fill:#4d4d4d;fill-opacity:1;stroke:none;font-family:Fredoka One;-inkscape-font-specification:Fredoka One"
         xml:space="preserve"><tspan
           y="792.45728"
           x="276.78156"
           id="tspan3146-7"
           sodipodi:role="line">mod</tspan></text>
      <text
         sodipodi:linespacing="125%"
         id="text3144-51"
         y="792.45728"
         x="358.78156"
         style="font-size:40px;font-style:normal;font-variant:normal;font-weight:normal;font-stretch:normal;line-height:125%;letter-spacing:0px;word-spacing:0px;fill:#d33119;fill-opacity:1;stroke:none;font-family:Fredoka One;-inkscape-font-specification:Fredoka One"
         xml:space="preserve"><tspan
           y="792.45728"
           x="358.78156"
           id="tspan3146-9"
           sodipodi:role="line">mruby</tspan></text>
    </g>
  </g>
</svg>
